<svg width="21" height="21" viewBox="0 0 21 21" fill="none" xmlns="http://www.w3.org/2000/svg">
<path fill-rule="evenodd" clip-rule="evenodd" d="M10.9336 3.78003C6.41256 3.78003 2.54144 6.55893 0.933594 10.5018C2.54144 14.4446 6.41256 17.2235 10.9336 17.2235C15.4546 17.2235 19.3257 14.4446 20.9336 10.5018C19.3257 6.55893 15.4546 3.78003 10.9336 3.78003ZM10.9336 14.7258C13.2665 14.7258 15.1576 12.8347 15.1576 10.5018C15.1576 8.16884 13.2665 6.27774 10.9336 6.27774C8.60066 6.27774 6.70956 8.16884 6.70956 10.5018C6.70956 12.8347 8.60066 14.7258 10.9336 14.7258Z" fill="black"/>
<path d="M13.7496 10.5018C13.7496 12.057 12.4888 13.3178 10.9336 13.3178C9.37835 13.3178 8.11757 12.057 8.11757 10.5018C8.11757 8.94653 9.37835 7.68575 10.9336 7.68575C12.4888 7.68575 13.7496 8.94653 13.7496 10.5018Z" fill="black"/>
</svg>
