<svg width="21" height="21" viewBox="0 0 21 21" fill="none" xmlns="http://www.w3.org/2000/svg">
<path d="M10.9229 2.5C6.50507 2.5 2.92285 6.08133 2.92285 10.5C2.92285 13.7764 4.89352 16.5907 7.7113 17.8271C7.68907 17.268 7.70774 16.5978 7.85174 15.9898L8.88019 11.6324C8.88019 11.6324 8.62419 11.1196 8.62419 10.3649C8.62419 9.18 9.3113 8.29378 10.1673 8.29378C10.8953 8.29378 11.2464 8.84044 11.2464 9.49467C11.2464 10.2253 10.7806 11.3213 10.5397 12.3329C10.3389 13.1818 10.9655 13.8742 11.8029 13.8742C13.3184 13.8742 14.3397 11.9276 14.3397 9.62089C14.3397 7.86711 13.1593 6.55511 11.0117 6.55511C8.58507 6.55511 7.07219 8.36489 7.07219 10.3871C7.07219 11.0831 7.27663 11.5756 7.60018 11.956C7.74774 12.1311 7.76818 12.2004 7.71485 12.4013L7.5513 13.044C7.49796 13.2476 7.33441 13.3196 7.1513 13.2449C6.03307 12.788 5.51219 11.564 5.51219 10.1889C5.51219 7.916 7.42952 5.19067 11.2304 5.19067C14.2855 5.19067 16.2944 7.40133 16.2944 9.77378C16.2944 12.9124 14.5504 15.2556 11.9789 15.2556C11.1157 15.2556 10.3024 14.7889 10.0242 14.2591C10.0242 14.2591 9.56018 16.1027 9.46152 16.4582C9.29174 17.0751 8.96018 17.6911 8.65618 18.1729C9.3753 18.3844 10.1353 18.5 10.9229 18.5C15.3406 18.5 18.9229 14.9178 18.9229 10.4991C18.9229 6.08044 15.3406 2.5 10.9229 2.5Z" fill="black"/>
</svg>
