<svg width="20" height="20" viewBox="0 0 20 20" fill="none" xmlns="http://www.w3.org/2000/svg">
<path fill-rule="evenodd" clip-rule="evenodd" d="M1.66663 9.99996C1.66663 9.53972 2.03972 9.16663 2.49996 9.16663H17.5C17.9602 9.16663 18.3333 9.53972 18.3333 9.99996C18.3333 10.4602 17.9602 10.8333 17.5 10.8333H2.49996C2.03972 10.8333 1.66663 10.4602 1.66663 9.99996Z" fill="black"/>
<path fill-rule="evenodd" clip-rule="evenodd" d="M1.66663 4.99996C1.66663 4.53972 2.03972 4.16663 2.49996 4.16663H17.5C17.9602 4.16663 18.3333 4.53972 18.3333 4.99996C18.3333 5.4602 17.9602 5.83329 17.5 5.83329H2.49996C2.03972 5.83329 1.66663 5.4602 1.66663 4.99996Z" fill="black"/>
<path fill-rule="evenodd" clip-rule="evenodd" d="M1.66663 15C1.66663 14.5397 2.03972 14.1666 2.49996 14.1666H17.5C17.9602 14.1666 18.3333 14.5397 18.3333 15C18.3333 15.4602 17.9602 15.8333 17.5 15.8333H2.49996C2.03972 15.8333 1.66663 15.4602 1.66663 15Z" fill="black"/>
</svg>
