<svg width="21" height="21" viewBox="0 0 21 21" fill="none" xmlns="http://www.w3.org/2000/svg">
<path fill-rule="evenodd" clip-rule="evenodd" d="M7.62448 2.54815C6.77293 2.58703 6.19139 2.72225 5.68257 2.91999C5.15647 3.12442 4.71032 3.39797 4.26558 3.84272C3.82083 4.28746 3.54728 4.73365 3.34288 5.25971C3.14503 5.76859 3.00982 6.35013 2.971 7.20164C2.93204 8.0549 2.92285 8.3273 2.92285 10.5C2.92285 12.6727 2.93204 12.9451 2.971 13.7984C3.00982 14.6499 3.14503 15.2314 3.34288 15.7403C3.54728 16.2664 3.82083 16.7125 4.26558 17.1573C4.71032 17.602 5.15647 17.8756 5.68257 18.08C6.19139 18.2777 6.77293 18.413 7.62448 18.4519C8.47775 18.4908 8.75018 18.5 10.9229 18.5C13.0955 18.5 13.368 18.4908 14.2213 18.4519C15.0728 18.413 15.6543 18.2777 16.1632 18.08C16.6893 17.8756 17.1354 17.602 17.5801 17.1573C18.0249 16.7125 18.2984 16.2664 18.5029 15.7403C18.7007 15.2314 18.8359 14.6499 18.8747 13.7984C18.9137 12.9451 18.9229 12.6727 18.9229 10.5C18.9229 8.3273 18.9137 8.0549 18.8747 7.20164C18.8359 6.35013 18.7007 5.76859 18.5029 5.25971C18.2984 4.73365 18.0249 4.28746 17.5801 3.84272C17.1354 3.39797 16.6893 3.12442 16.1632 2.91999C15.6543 2.72225 15.0728 2.58703 14.2213 2.54815C13.368 2.50915 13.0955 2.5 10.9229 2.5C8.75018 2.5 8.47775 2.50915 7.62448 2.54815ZM10.9229 13.1666C9.4501 13.1666 8.25616 11.9727 8.25616 10.5C8.25616 9.02722 9.4501 7.83332 10.9229 7.83332C12.3956 7.83332 13.5895 9.02722 13.5895 10.5C13.5895 11.9727 12.3956 13.1666 10.9229 13.1666ZM10.9229 6.39189C8.65402 6.39189 6.81476 8.23118 6.81476 10.5C6.81476 12.7689 8.65402 14.6081 10.9229 14.6081C13.1917 14.6081 15.0309 12.7689 15.0309 10.5C15.0309 8.23118 13.1917 6.39189 10.9229 6.39189ZM16.1533 6.22957C16.1533 6.75974 15.7235 7.18958 15.1933 7.18958C14.6631 7.18958 14.2333 6.75974 14.2333 6.22957C14.2333 5.69937 14.6631 5.26956 15.1933 5.26956C15.7235 5.26956 16.1533 5.69937 16.1533 6.22957Z" fill="currentColor"/>
</svg>
