<svg width="20" height="20" viewBox="0 0 20 20" fill="none" xmlns="http://www.w3.org/2000/svg">
<path fill-rule="evenodd" clip-rule="evenodd" d="M4.33329 1.16671C4.49067 0.956869 4.73766 0.833374 4.99996 0.833374H15C15.2623 0.833374 15.5092 0.956869 15.6666 1.16671L18.1666 4.50004C18.2748 4.64429 18.3333 4.81973 18.3333 5.00004V16.6667C18.3333 17.3297 18.0699 17.9656 17.6011 18.4345C17.1322 18.9033 16.4963 19.1667 15.8333 19.1667H4.16663C3.50358 19.1667 2.8677 18.9033 2.39886 18.4345C1.93002 17.9656 1.66663 17.3297 1.66663 16.6667V5.00004C1.66663 4.81973 1.72511 4.64429 1.83329 4.50004L4.33329 1.16671ZM5.41663 2.50004L3.33329 5.27782V16.6667C3.33329 16.8877 3.42109 17.0997 3.57737 17.256C3.73365 17.4122 3.94561 17.5 4.16663 17.5H15.8333C16.0543 17.5 16.2663 17.4122 16.4225 17.256C16.5788 17.0997 16.6666 16.8877 16.6666 16.6667V5.27782L14.5833 2.50004H5.41663Z" fill="currentColor"/>
<path fill-rule="evenodd" clip-rule="evenodd" d="M1.66663 5.00004C1.66663 4.5398 2.03972 4.16671 2.49996 4.16671H17.5C17.9602 4.16671 18.3333 4.5398 18.3333 5.00004C18.3333 5.46028 17.9602 5.83337 17.5 5.83337H2.49996C2.03972 5.83337 1.66663 5.46028 1.66663 5.00004Z" fill="currentColor"/>
<path fill-rule="evenodd" clip-rule="evenodd" d="M6.66663 7.50004C7.12686 7.50004 7.49996 7.87314 7.49996 8.33337C7.49996 8.99641 7.76335 9.6323 8.23219 10.1011C8.70103 10.57 9.33692 10.8334 9.99996 10.8334C10.663 10.8334 11.2989 10.57 11.7677 10.1011C12.2366 9.6323 12.5 8.99641 12.5 8.33337C12.5 7.87314 12.8731 7.50004 13.3333 7.50004C13.7935 7.50004 14.1666 7.87314 14.1666 8.33337C14.1666 9.43844 13.7276 10.4982 12.9462 11.2797C12.1648 12.0611 11.105 12.5 9.99996 12.5C8.89489 12.5 7.83508 12.0611 7.05368 11.2797C6.27228 10.4982 5.83329 9.43844 5.83329 8.33337C5.83329 7.87314 6.20639 7.50004 6.66663 7.50004Z" fill="currentColor"/>
</svg>
