<svg width="21" height="21" viewBox="0 0 21 21" fill="none" xmlns="http://www.w3.org/2000/svg">
<path d="M3.40495 1.87012L19.3348 17.7999L18.0073 19.1274L2.07746 3.1976L3.40495 1.87012Z" fill="black"/>
<path d="M6.07247 4.53764C3.75603 5.70777 1.91994 7.68779 0.933594 10.1055C2.54144 14.0484 6.41256 16.8273 10.9336 16.8273C13.0529 16.8273 15.0293 16.2165 16.6967 15.1617L14.2529 12.718C13.4792 13.6996 12.2802 14.3296 10.9336 14.3296C8.60066 14.3296 6.70956 12.4385 6.70956 10.1055C6.70956 8.75892 7.33931 7.55946 8.32107 6.78601L6.07247 4.53764Z" fill="black"/>
<path d="M9.32758 7.79229C8.59607 8.30105 8.11757 9.14736 8.11757 10.1055C8.11757 11.6607 9.378 12.9215 10.9336 12.9215C11.8915 12.9215 12.7385 12.443 13.2473 11.712L9.32758 7.79229Z" fill="black"/>
<path d="M11.5459 7.35618L13.6827 9.49295C13.4471 8.42938 12.6093 7.592 11.5459 7.35618Z" fill="black"/>
<path d="M15.0843 10.8943C15.1329 10.6388 15.1576 10.375 15.1576 10.1055C15.1576 7.77258 13.2665 5.88148 10.9336 5.88148C10.6641 5.88148 10.401 5.90669 10.1453 5.95505L7.9819 3.79215C8.91966 3.52609 9.91059 3.38378 10.9336 3.38378C15.4546 3.38378 19.3257 6.16267 20.9336 10.1055C20.3213 11.6063 19.3817 12.9385 18.2028 14.0128L15.0843 10.8943Z" fill="black"/>
</svg>
