<svg width="20" height="20" viewBox="0 0 20 20" fill="none" xmlns="http://www.w3.org/2000/svg">
<path fill-rule="evenodd" clip-rule="evenodd" d="M4.16663 3.33329C3.94561 3.33329 3.73365 3.42109 3.57737 3.57737C3.42109 3.73365 3.33329 3.94561 3.33329 4.16663V15.8333C3.33329 16.0543 3.42109 16.2663 3.57737 16.4225C3.73365 16.5788 3.94561 16.6666 4.16663 16.6666H7.49996C7.9602 16.6666 8.33329 17.0397 8.33329 17.5C8.33329 17.9602 7.9602 18.3333 7.49996 18.3333H4.16663C3.50358 18.3333 2.8677 18.0699 2.39886 17.6011C1.93002 17.1322 1.66663 16.4963 1.66663 15.8333V4.16663C1.66663 3.50358 1.93002 2.8677 2.39886 2.39886C2.8677 1.93002 3.50358 1.66663 4.16663 1.66663H7.49996C7.9602 1.66663 8.33329 2.03972 8.33329 2.49996C8.33329 2.9602 7.9602 3.33329 7.49996 3.33329H4.16663Z" fill="black"/>
<path fill-rule="evenodd" clip-rule="evenodd" d="M12.7441 5.24408C13.0695 4.91864 13.5972 4.91864 13.9226 5.24408L18.0893 9.41074C18.4147 9.73618 18.4147 10.2638 18.0893 10.5893L13.9226 14.7559C13.5972 15.0814 13.0695 15.0814 12.7441 14.7559C12.4186 14.4305 12.4186 13.9028 12.7441 13.5774L16.3215 10L12.7441 6.42259C12.4186 6.09715 12.4186 5.56951 12.7441 5.24408Z" fill="black"/>
<path fill-rule="evenodd" clip-rule="evenodd" d="M6.66663 9.99996C6.66663 9.53972 7.03972 9.16663 7.49996 9.16663H17.5C17.9602 9.16663 18.3333 9.53972 18.3333 9.99996C18.3333 10.4602 17.9602 10.8333 17.5 10.8333H7.49996C7.03972 10.8333 6.66663 10.4602 6.66663 9.99996Z" fill="black"/>
</svg>
