<svg width="20" height="20" viewBox="0 0 20 20" fill="none" xmlns="http://www.w3.org/2000/svg">
<path fill-rule="evenodd" clip-rule="evenodd" d="M11.6666 2.49996C11.6666 2.03972 12.0397 1.66663 12.5 1.66663H15.8333C16.4963 1.66663 17.1322 1.93002 17.6011 2.39886C18.0699 2.8677 18.3333 3.50358 18.3333 4.16663V15.8333C18.3333 16.4963 18.0699 17.1322 17.6011 17.6011C17.1322 18.0699 16.4963 18.3333 15.8333 18.3333H12.5C12.0397 18.3333 11.6666 17.9602 11.6666 17.5C11.6666 17.0397 12.0397 16.6666 12.5 16.6666H15.8333C16.0543 16.6666 16.2663 16.5788 16.4225 16.4225C16.5788 16.2663 16.6666 16.0543 16.6666 15.8333V4.16663C16.6666 3.94561 16.5788 3.73365 16.4225 3.57737C16.2663 3.42109 16.0543 3.33329 15.8333 3.33329H12.5C12.0397 3.33329 11.6666 2.9602 11.6666 2.49996Z" fill="black"/>
<path fill-rule="evenodd" clip-rule="evenodd" d="M7.74408 5.24408C8.06951 4.91864 8.59715 4.91864 8.92259 5.24408L13.0893 9.41074C13.4147 9.73618 13.4147 10.2638 13.0893 10.5893L8.92259 14.7559C8.59715 15.0814 8.06951 15.0814 7.74408 14.7559C7.41864 14.4305 7.41864 13.9028 7.74408 13.5774L11.3215 10L7.74408 6.42259C7.41864 6.09715 7.41864 5.56951 7.74408 5.24408Z" fill="black"/>
<path fill-rule="evenodd" clip-rule="evenodd" d="M1.66663 9.99996C1.66663 9.53972 2.03972 9.16663 2.49996 9.16663H12.5C12.9602 9.16663 13.3333 9.53972 13.3333 9.99996C13.3333 10.4602 12.9602 10.8333 12.5 10.8333H2.49996C2.03972 10.8333 1.66663 10.4602 1.66663 9.99996Z" fill="black"/>
</svg>
