<svg width="21" height="21" viewBox="0 0 21 21" fill="none" xmlns="http://www.w3.org/2000/svg">
<path d="M18.8658 5.99021C18.8067 5.93653 18.7189 5.92984 18.6525 5.97399C18.3589 6.16936 17.9631 6.26854 17.6342 6.31893C18.0275 5.99714 18.4862 5.49136 18.4832 4.8396C18.4829 4.77404 18.446 4.71412 18.3876 4.68454C18.3293 4.65495 18.2593 4.66069 18.2065 4.69931C17.6103 5.13564 16.7558 5.36484 16.443 5.43803C16.2217 5.07233 15.4608 4 14.1456 4C14.072 4 13.997 4.00349 13.9225 4.01033C12.2881 4.16109 11.4961 5.11973 11.1195 5.89741C10.8815 6.38908 10.7769 6.86512 10.7311 7.17953C10.4719 6.95293 10.0198 6.60809 9.34686 6.263C8.31882 5.73572 6.55311 5.10721 3.97971 5.10721C3.72951 5.10721 3.4725 5.11314 3.21578 5.12487C3.15739 5.12756 3.10422 5.15944 3.07422 5.20978C3.04423 5.26012 3.04144 5.32223 3.06686 5.37506C3.6161 6.51914 4.7976 7.19115 5.56674 7.52392C5.14474 7.63607 4.69384 7.85489 4.55262 8.19963C4.48095 8.37464 4.46254 8.64968 4.78183 8.96614C5.25059 9.43071 5.80167 9.71299 6.28724 9.88436C5.90682 9.95226 5.60306 10.0688 5.50457 10.2627C5.46711 10.3366 5.42439 10.4881 5.55928 10.6741C6.20597 11.566 7.75595 11.9129 8.44327 11.9695C8.35607 12.1772 8.17447 12.5147 7.82374 12.8488C7.07435 13.5627 5.8927 13.9401 4.40654 13.9401C4.40639 13.9401 4.40624 13.9401 4.40609 13.9401C4.00224 13.9401 3.5688 13.9127 3.11765 13.8585C3.04313 13.8497 2.97121 13.8895 2.93932 13.9578C2.90744 14.026 2.92276 14.107 2.97733 14.1587C4.93658 16.0172 7.1608 16.9997 9.40959 17C9.41004 17 9.41033 17 9.41073 17C11.8864 17 14.3104 15.7791 15.8948 13.7341C17.3058 11.9128 17.8463 9.73294 17.39 7.72817C17.6949 7.59731 18.3677 7.21036 18.9025 6.20144C18.9399 6.1309 18.9247 6.04389 18.8658 5.99021Z" fill="black"/>
</svg>
