<?xml version="1.0" standalone="no"?>
<!DOCTYPE svg PUBLIC "-//W3C//DTD SVG 20010904//EN"
 "http://www.w3.org/TR/2001/REC-SVG-20010904/DTD/svg10.dtd">
<svg version="1.0" xmlns="http://www.w3.org/2000/svg"
 width="872.000000pt" height="872.000000pt" viewBox="0 0 872.000000 872.000000"
 preserveAspectRatio="xMidYMid meet">
<metadata>
Created by potrace 1.14, written by Peter Selinger 2001-2017
</metadata>
<g transform="translate(0.000000,872.000000) scale(0.100000,-0.100000)"
fill="#000000" stroke="none">
<path d="M4117 8643 c-2 -1 -37 -5 -78 -8 -116 -8 -260 -23 -299 -30 -14 -3
-45 -8 -70 -11 -24 -3 -47 -7 -50 -9 -3 -2 -30 -6 -60 -10 -30 -4 -58 -9 -61
-11 -6 -3 -117 -29 -179 -40 -14 -3 -56 -14 -93 -25 -38 -11 -77 -21 -88 -22
-10 -1 -19 -5 -19 -9 0 -4 -8 -8 -17 -8 -43 0 -370 -122 -541 -201 -113 -52
-236 -113 -242 -119 -3 -3 -16 -11 -30 -17 -14 -7 -52 -28 -85 -47 -33 -19
-73 -43 -90 -52 -16 -9 -76 -48 -133 -86 -56 -37 -107 -68 -112 -68 -6 0 -10
-4 -10 -9 0 -5 -20 -22 -45 -38 -25 -15 -45 -31 -45 -35 0 -5 -6 -8 -13 -8 -7
0 -19 -9 -27 -20 -8 -11 -20 -20 -26 -20 -7 0 -14 -3 -16 -7 -2 -5 -25 -26
-53 -47 -27 -22 -55 -44 -60 -50 -6 -6 -44 -40 -85 -76 -138 -119 -309 -296
-470 -486 -30 -35 -129 -164 -150 -195 -8 -12 -24 -34 -36 -48 -26 -32 -161
-240 -196 -301 -51 -89 -71 -126 -106 -195 -20 -38 -40 -73 -45 -76 -5 -3 -8
-8 -6 -10 2 -4 -16 -45 -72 -166 -16 -34 -29 -65 -29 -68 0 -3 -9 -24 -19 -48
-26 -56 -84 -214 -111 -302 -12 -38 -24 -77 -27 -85 -7 -18 -5 -11 -22 -80 -8
-30 -16 -59 -19 -65 -3 -5 -7 -16 -8 -25 -2 -8 -4 -22 -7 -30 -3 -14 -26 -119
-32 -150 -2 -8 -4 -15 -5 -15 -2 0 -7 -25 -14 -75 -4 -25 -9 -52 -11 -60 -6
-21 -17 -98 -21 -140 -1 -19 -3 -35 -4 -35 -4 0 -10 -45 -14 -100 -3 -33 -5
-60 -6 -60 -14 0 -19 -613 -6 -760 13 -150 14 -160 16 -160 1 0 3 -18 4 -40 2
-22 6 -58 10 -80 23 -139 30 -181 31 -185 11 -48 16 -71 20 -100 3 -19 8 -43
11 -52 3 -9 7 -25 9 -35 2 -10 15 -63 30 -118 14 -55 28 -107 30 -115 2 -8 4
-15 5 -15 1 0 3 -7 5 -15 1 -8 13 -46 26 -85 12 -38 21 -72 20 -74 -2 -2 1 -7
6 -10 4 -3 19 -40 32 -81 14 -41 28 -80 33 -86 4 -6 6 -13 3 -16 -3 -3 1 -11
10 -18 8 -7 15 -18 15 -25 0 -8 10 -35 22 -62 12 -26 22 -50 22 -53 3 -16 140
-286 147 -288 5 -2 9 -9 9 -16 0 -13 89 -170 109 -193 6 -7 11 -15 11 -18 0
-9 138 -215 161 -241 11 -11 19 -25 19 -31 0 -6 3 -13 8 -15 4 -2 38 -42 75
-90 37 -47 73 -93 79 -100 7 -7 38 -43 68 -78 56 -66 226 -246 268 -284 13
-12 41 -37 61 -56 45 -43 197 -172 257 -220 87 -68 274 -201 339 -240 22 -13
42 -26 45 -29 3 -4 16 -12 29 -19 61 -35 90 -52 140 -81 59 -35 376 -190 431
-211 19 -7 58 -23 85 -35 28 -12 106 -41 175 -64 69 -23 132 -45 140 -48 21
-8 31 -11 63 -18 15 -3 47 -12 70 -19 23 -8 65 -19 92 -26 28 -6 57 -14 65
-16 30 -7 148 -32 181 -39 43 -8 64 -11 184 -29 225 -34 332 -41 635 -41 288
0 455 10 640 40 102 16 216 37 275 51 39 9 80 17 92 18 13 1 26 6 30 9 3 4 14
7 24 7 56 0 510 155 678 231 35 17 87 39 115 51 28 12 53 25 56 28 6 7 53 28
60 26 3 0 19 8 35 20 17 11 44 27 60 36 95 46 366 214 373 230 2 5 8 6 13 2 5
-3 9 -1 9 4 0 4 28 27 63 50 34 23 74 53 89 67 15 14 31 25 35 25 5 0 22 12
39 27 17 16 55 48 84 73 228 191 445 412 595 604 17 21 36 45 43 52 6 7 12 15
12 18 0 3 8 14 18 24 9 10 24 29 32 41 16 25 63 88 81 109 6 7 16 23 22 35 7
12 31 50 55 85 23 35 42 67 42 72 0 5 4 10 8 12 11 4 117 191 177 313 28 55
52 102 55 105 3 3 7 14 8 25 2 11 7 22 11 25 8 5 141 331 145 353 1 6 4 17 7
22 4 6 18 51 33 100 15 50 30 99 34 110 3 11 6 22 7 25 9 42 19 77 23 85 4 6
7 15 8 20 6 30 14 69 32 150 25 113 40 189 48 240 10 74 15 98 20 107 3 4 0 8
-6 8 -7 0 -8 6 -1 18 8 16 13 57 29 237 8 98 7 576 -1 665 -21 213 -31 297
-42 350 -3 14 -8 41 -11 60 -6 38 -11 65 -20 108 -3 15 -7 36 -9 47 -2 11 -9
43 -15 70 -7 28 -13 59 -15 70 -2 11 -11 44 -20 73 -8 28 -22 76 -31 105 -8
28 -16 57 -18 62 -3 15 -47 147 -53 165 -4 8 -7 17 -8 20 -5 13 -18 47 -25 65
-5 11 -21 52 -36 90 -63 165 -203 447 -285 576 -16 25 -29 49 -29 53 0 4 -5
12 -10 19 -6 7 -43 62 -82 122 -40 61 -80 119 -90 129 -10 11 -18 23 -18 26 0
4 -8 16 -17 27 -10 11 -45 55 -78 98 -137 177 -391 444 -545 575 -29 25 -58
50 -64 55 -28 26 -166 135 -171 135 -3 0 -16 9 -28 21 -35 32 -309 219 -347
236 -8 3 -39 21 -68 40 -29 18 -56 33 -61 33 -5 0 -16 6 -23 13 -18 17 -386
197 -403 197 -3 0 -24 9 -48 19 -42 19 -76 32 -89 36 -5 2 -10 4 -13 5 -3 1
-8 3 -12 5 -5 1 -17 5 -28 9 -77 30 -95 35 -95 28 0 -4 -4 -1 -8 5 -4 7 -17
14 -27 16 -11 2 -27 6 -35 9 -68 25 -359 101 -429 113 -19 3 -37 8 -41 10 -3
2 -28 6 -54 10 -27 3 -51 7 -55 9 -3 2 -28 7 -56 10 -27 4 -61 8 -75 10 -14 2
-50 7 -80 11 -30 3 -70 8 -87 11 -78 12 -686 27 -696 17z"/>
</g>
</svg>
