<svg width="121" height="120" viewBox="0 0 121 120" fill="none" xmlns="http://www.w3.org/2000/svg">
<g clip-path="url(#clip0_696_8799)">
<path fill-rule="evenodd" clip-rule="evenodd" d="M41.5817 99.8074L40.6236 102.076C40.3817 102.654 40.6422 103.11 41.1166 103.313C41.6096 103.519 42.1678 103.388 42.391 102.868L43.3585 100.561L44.0282 100.841L42.4748 104.551L41.7957 104.273L41.9073 104.021C41.6096 104.114 41.1259 104.096 40.8013 103.965C39.9734 103.61 39.4989 102.867 39.9641 101.759L40.9036 99.5283L41.5817 99.8074Z" fill="#DC4231"/>
<path fill-rule="evenodd" clip-rule="evenodd" d="M47.0235 106.068L47.6933 103.695C47.8607 103.101 47.5444 102.672 47.0421 102.532C46.5398 102.395 45.9909 102.597 45.8421 103.137L45.163 105.537L44.4561 105.342L45.5537 101.473L46.2514 101.667L46.177 101.928C46.4561 101.807 46.9398 101.759 47.284 101.854C48.1491 102.096 48.7072 102.773 48.3816 103.936L47.7212 106.261L47.0235 106.068Z" fill="#DC4231"/>
<path fill-rule="evenodd" clip-rule="evenodd" d="M51.3024 102.013C51.5815 102.068 51.8513 101.891 51.9061 101.611C51.9629 101.333 51.7852 101.062 51.5061 101.008C51.2271 100.952 50.9666 101.128 50.9015 101.408C50.8466 101.686 51.0234 101.957 51.3024 102.013ZM50.7629 102.86L51.4792 102.997L50.6792 106.932L49.9629 106.783L50.7629 102.86Z" fill="#DC4231"/>
<path fill-rule="evenodd" clip-rule="evenodd" d="M53.6469 105.473C53.5539 106.357 54.1492 106.942 54.8097 107.007C55.5446 107.082 56.1027 106.655 56.1957 105.734C56.2887 104.831 55.7678 104.282 55.0981 104.217C54.3725 104.142 53.7399 104.571 53.6469 105.473ZM55.9818 107.417C55.5632 107.669 55.1725 107.78 54.7353 107.733C53.7306 107.64 52.7911 106.665 52.9213 105.398C53.0608 104.06 54.1399 103.4 55.1725 103.501C55.5911 103.547 55.9632 103.734 56.326 104.06L56.3632 103.716L57.0887 103.791L56.4655 109.864L55.7399 109.79L55.9818 107.417Z" fill="#DC4231"/>
<path fill-rule="evenodd" clip-rule="evenodd" d="M59.4424 103.937L59.5075 106.394C59.5168 107.017 59.9448 107.333 60.4657 107.324C60.9866 107.305 61.4517 106.952 61.4424 106.394L61.3773 103.892L62.1131 103.874L62.2061 107.901L61.4806 107.92L61.4713 107.64C61.2387 107.846 60.7931 108.031 60.4387 108.04C59.5364 108.06 58.8015 107.575 58.7736 106.376L58.7178 103.957L59.4424 103.937Z" fill="#DC4231"/>
<path fill-rule="evenodd" clip-rule="evenodd" d="M66.9214 104.941C66.6982 104.413 66.2507 104.133 65.7493 104.198C65.2191 104.263 64.8461 104.634 64.6972 105.212L66.9214 104.941ZM64.7447 105.919C64.9028 106.626 65.4982 107.063 66.1493 106.98C66.5772 106.933 66.9772 106.691 67.154 106.319L67.7679 106.719C67.4517 107.232 66.8647 107.613 66.2414 107.687C65.2275 107.819 64.1577 107.064 64.0089 105.836C63.8507 104.552 64.6228 103.612 65.6647 103.484C66.66 103.362 67.5903 104.087 67.7484 105.38L67.7679 105.548L64.7447 105.919Z" fill="#DC4231"/>
<path fill-rule="evenodd" clip-rule="evenodd" d="M74.3821 102.691C74.1124 102.506 73.824 102.459 73.5356 102.554C73.2668 102.637 72.9031 102.861 72.9868 103.139C73.0612 103.4 73.2845 103.473 73.9077 103.446C74.9124 103.4 75.3961 103.678 75.61 104.367C75.8333 105.121 75.3589 105.735 74.4845 105.994C73.7403 106.218 73.2659 106.051 72.8938 105.697L73.3589 105.148C73.7961 105.604 75.1263 105.241 74.93 104.581C74.8286 104.246 74.5487 104.153 73.9533 104.162C72.93 104.171 72.5021 103.986 72.3059 103.344C72.1477 102.832 72.4742 102.163 73.3849 101.884C73.8882 101.735 74.3152 101.827 74.7533 102.164L74.3821 102.691Z" fill="#DC4231"/>
<path fill-rule="evenodd" clip-rule="evenodd" d="M79.2472 101.435C78.8835 100.979 78.3914 100.831 77.917 101.027C77.423 101.232 77.1625 101.686 77.1719 102.283L79.2472 101.435ZM77.4053 102.952C77.7402 103.593 78.4286 103.854 79.0426 103.603C79.4332 103.445 79.7598 103.101 79.8426 102.701L80.5309 102.923C80.3542 103.5 79.8974 104.022 79.3123 104.263C78.3718 104.654 77.1449 104.206 76.6695 103.062C76.1765 101.863 76.6798 100.755 77.6463 100.365C78.5765 99.9832 79.6649 100.439 80.1579 101.64L80.223 101.789L77.4053 102.952Z" fill="#DC4231"/>
<path fill-rule="evenodd" clip-rule="evenodd" d="M80.3259 97.2036L82.4934 101.315C82.7352 101.771 83.0887 102.162 83.218 102.3L82.5948 102.636C82.4934 102.562 82.1762 102.272 81.7017 101.37L79.6738 97.5478L80.3259 97.2036Z" fill="#DC4231"/>
<path fill-rule="evenodd" clip-rule="evenodd" d="M85.8976 97.7981C85.4697 97.4074 84.9581 97.3423 84.5218 97.613C84.066 97.9023 83.8893 98.3944 84 98.9814L85.8976 97.7981ZM84.3348 99.5926C84.772 100.17 85.4976 100.319 86.0567 99.9739C86.4195 99.7414 86.6799 99.36 86.6893 98.9507L87.4139 99.0437C87.3395 99.6484 86.9767 100.245 86.4372 100.579C85.572 101.109 84.28 100.876 83.6279 99.8353C82.9488 98.7358 83.2465 97.5553 84.1395 97.0065C84.9953 96.4763 86.1488 96.747 86.8279 97.8437L86.9218 97.9833L84.3348 99.5926Z" fill="#DC4231"/>
<path fill-rule="evenodd" clip-rule="evenodd" d="M91.5729 95.8634C91.5729 96.4959 91.3208 97.0829 90.8185 97.482C90.0278 98.1145 88.7254 98.0401 87.944 97.0643C87.1533 96.0866 87.3673 94.8038 88.158 94.1704C88.6594 93.7704 89.2826 93.642 89.8966 93.7797L89.7478 94.5155C89.3673 94.3759 88.9487 94.468 88.6138 94.7387C88.1012 95.1471 87.9896 95.9471 88.5198 96.6085C89.0408 97.2587 89.8594 97.3248 90.3608 96.9155C90.6957 96.6448 90.8826 96.2541 90.8166 95.8541L91.5729 95.8634Z" fill="#DC4231"/>
<path fill-rule="evenodd" clip-rule="evenodd" d="M94.9118 93.799C94.3444 94.6548 93.3304 94.9143 92.5956 94.1608L91.1732 92.6911L90.7639 93.0929L90.2793 92.5897L90.6793 92.1897L89.3965 90.8687L89.9174 90.3655L91.2011 91.6864L91.7974 91.1013L92.2895 91.612L91.6942 92.1897L93.1639 93.705C93.5351 94.0864 93.9825 93.892 94.2058 93.5292L94.9118 93.799Z" fill="#DC4231"/>
<path fill-rule="evenodd" clip-rule="evenodd" d="M96.0175 92.533L96.5022 91.9935L93.5068 89.3246L93.0222 89.8735L96.0175 92.533ZM91.8408 89.026C91.6278 88.8316 91.6082 88.5153 91.7952 88.3014C91.9803 88.0874 92.3059 88.0688 92.5198 88.2632C92.7254 88.4502 92.7524 88.7665 92.5571 88.9804C92.3719 89.1935 92.0464 89.213 91.8408 89.026Z" fill="#DC4231"/>
<path fill-rule="evenodd" clip-rule="evenodd" d="M96.224 87.0456C95.237 88.3377 97.4138 90.0688 98.438 88.7368C99.4519 87.4168 97.21 85.7609 96.224 87.0456ZM99.0147 89.1842C97.4138 91.2679 94.0473 88.6828 95.6473 86.5991C97.238 84.5237 100.605 87.1098 99.0147 89.1842Z" fill="#DC4231"/>
<path fill-rule="evenodd" clip-rule="evenodd" d="M102.428 83.9367L100.345 82.6363C99.8145 82.3088 99.3131 82.4967 99.0424 82.9339C98.7634 83.3795 98.8099 83.9656 99.2843 84.2549L101.415 85.5758L101.025 86.199L97.6006 84.0679L97.9913 83.4539L98.2238 83.6028C98.1773 83.2958 98.2704 82.8214 98.4564 82.5144C98.9317 81.7516 99.7401 81.4083 100.763 82.04L102.819 83.3135L102.428 83.9367Z" fill="#DC4231"/>
<path fill-rule="evenodd" clip-rule="evenodd" d="M75.8163 114.137C70.7354 115.591 65.5075 116.329 60.2795 116.329C36.2888 116.329 14.8154 100.831 7.08048 78.2922L14.6954 76.1106L14.3037 74.7686L6.65164 76.9687C6.50188 76.5024 6.35397 76.0362 6.2135 75.5606C-2.33347 45.7404 14.9744 14.5298 44.7902 5.97963C49.8693 4.51565 55.0982 3.77948 60.327 3.77948C85.2777 3.77948 107.507 20.5449 114.394 44.5473C114.523 45.0229 114.637 45.4985 114.757 45.974L107.255 48.1183L107.638 49.4604L115.112 47.3254C121.858 76.2781 104.708 105.847 75.8163 114.137ZM117.972 43.5208C110.635 17.925 86.9251 0.0585938 60.3251 0.0585938C54.7521 0.0585938 49.1782 0.841302 43.7633 2.38997C11.9633 11.5098 -6.49068 44.7986 2.63397 76.5955C9.96885 102.184 33.6702 120.059 60.2795 120.059C65.8535 120.059 71.4247 119.276 76.8414 117.719C108.642 108.598 127.086 75.3186 117.972 43.5208Z" fill="#DC4231"/>
<path d="M32.4004 80.1981L32.7818 81.5386L95.2004 63.6502L94.8097 62.3088L32.4004 80.1981Z" fill="#DC4231"/>
<path d="M108.632 72.3748C108.288 71.1469 106.967 70.3943 105.739 70.7283C104.465 71.0827 103.749 72.3562 104.093 73.6204C104.381 74.6455 105.302 75.3515 106.353 75.3515C106.566 75.3515 106.781 75.3227 106.995 75.2678C108.26 74.9143 108.986 73.6408 108.632 72.3748Z" fill="#DC4231"/>
<path d="M30.2237 92.8401C28.9585 93.1945 28.233 94.468 28.5864 95.7341C28.8748 96.7657 29.7771 97.4634 30.8376 97.4634C31.0506 97.4634 31.2655 97.4364 31.4785 97.3703C32.753 97.0252 33.4692 95.7517 33.1158 94.4866C32.7818 93.2596 31.4609 92.5052 30.2237 92.8401Z" fill="#DC4231"/>
<path d="M23.7499 47.6381C23.5132 48.1698 23.1715 48.6055 22.7247 48.9452C22.2749 49.277 21.7695 49.4756 21.2084 49.5411C20.6442 49.5986 20.0826 49.503 19.5235 49.2541C18.9643 49.0052 18.5201 48.6531 18.1908 48.1979C17.8639 47.7371 17.676 47.2298 17.6269 46.676C17.5749 46.1143 17.6672 45.5676 17.9039 45.0359C18.143 44.4987 18.4874 44.0643 18.9372 43.7325C19.384 43.3928 19.8867 43.193 20.4453 43.133C21.004 43.073 21.5629 43.1674 22.122 43.4163C22.6811 43.6652 23.1281 44.0185 23.4629 44.4762C23.7922 44.9315 23.9829 45.4399 24.035 46.0017C24.084 46.5555 23.989 47.101 23.7499 47.6381ZM22.9359 47.2758C23.1042 46.8976 23.1693 46.5227 23.1311 46.151C23.0875 45.7769 22.9433 45.4369 22.6986 45.131C22.4508 44.8171 22.1159 44.5662 21.6938 44.3783C21.2717 44.1904 20.8639 44.1107 20.4704 44.1391C20.0792 44.162 19.7328 44.2837 19.4311 44.504C19.1295 44.7244 18.8944 45.0237 18.7261 45.4019C18.5577 45.7801 18.4926 46.1551 18.5308 46.5267C18.569 46.8983 18.7092 47.2399 18.9515 47.5513C19.1962 47.8573 19.5296 48.1042 19.9517 48.2921C20.3737 48.48 20.7831 48.5637 21.1797 48.5432C21.5733 48.5148 21.9236 48.3916 22.2308 48.1737C22.5325 47.9533 22.7675 47.654 22.9359 47.2758Z" fill="#DC4231"/>
<path d="M31.176 34.5787L30.4967 35.3476L24.9522 34.5684L28.4528 37.661L27.7734 38.43L23.0791 34.2826L23.7584 33.5137L29.2961 34.2869L25.8023 31.2002L26.4816 30.4313L31.176 34.5787Z" fill="#DC4231"/>
<path d="M36.2644 28.39L37.9927 27.171L38.47 27.8476L35.9032 29.658L32.298 24.5465L33.1364 23.9551L36.2644 28.39Z" fill="#DC4231"/>
<path d="M46.2381 16.8214L45.5668 21.2633L46.2993 23.4097L45.3283 23.7411L44.5958 21.5947L41.3404 18.4929L42.4222 18.1237L44.7848 20.5602L45.1648 17.1876L46.2381 16.8214Z" fill="#DC4231"/>
<path d="M57.2254 12.1741L55.482 22.3907L54.4765 22.4606L56.2108 12.2447L57.2254 12.1741Z" fill="#DC4231"/>
<path d="M67.6845 20.8366C67.1222 20.6865 66.6381 20.4176 66.2324 20.0298C65.834 19.6378 65.5584 19.1699 65.4055 18.626C65.2599 18.078 65.266 17.5083 65.4238 16.917C65.5817 16.3257 65.8595 15.8316 66.2573 15.4348C66.6609 15.0395 67.1323 14.7741 67.6715 14.6386C68.218 14.4988 68.7724 14.5039 69.3347 14.654C69.9029 14.8057 70.3861 15.0775 70.7845 15.4695C71.1902 15.8572 71.4666 16.3223 71.6138 16.8646C71.7609 17.4068 71.7555 17.9736 71.5977 18.5649C71.4399 19.1562 71.1613 19.6532 70.7619 20.0558C70.3641 20.4527 69.892 20.721 69.3454 20.8607C68.8062 20.9963 68.2526 20.9882 67.6845 20.8366ZM67.9143 19.9757C68.3142 20.0825 68.6948 20.0878 69.0558 19.9916C69.4183 19.8897 69.7314 19.6938 69.9951 19.404C70.2661 19.11 70.4612 18.7397 70.5803 18.2934C70.6995 17.847 70.7141 17.4317 70.6241 17.0475C70.5399 16.6649 70.3653 16.3419 70.1002 16.0786C69.8352 15.8154 69.5026 15.6304 69.1026 15.5236C68.7026 15.4168 68.3221 15.4115 67.9611 15.5077C67.6001 15.6038 67.2849 15.796 67.0154 16.0843C66.7518 16.3741 66.5604 16.7422 66.4412 17.1885C66.3221 17.6349 66.3038 18.0523 66.3864 18.4408C66.4764 18.825 66.6531 19.1516 66.9167 19.4207C67.1817 19.6839 67.5143 19.8689 67.9143 19.9757Z" fill="#DC4231"/>
<path d="M81.7107 26.0761L80.8451 25.5254L80.748 19.9273L78.2406 23.8682L77.3749 23.3174L80.7376 18.0325L81.6032 18.5833L81.7051 24.1738L84.2077 20.2404L85.0733 20.7912L81.7107 26.0761Z" fill="#DC4231"/>
<path d="M92.2574 27.1563L90.9083 28.4016L92.3734 29.9888L91.7584 30.5565L90.2933 28.9693L88.8847 30.2696L90.533 32.0552L89.9179 32.6229L87.5738 30.0834L92.1765 25.8346L94.5207 28.3741L93.9057 28.9418L92.2574 27.1563Z" fill="#DC4231"/>
</g>
<defs>
<clipPath id="clip0_696_8799">
<rect width="120" height="120" fill="white" transform="translate(0.300781)"/>
</clipPath>
</defs>
</svg>
