<svg width="171" height="28" viewBox="0 0 171 28" fill="none" xmlns="http://www.w3.org/2000/svg">
<path d="M168.081 0.865967C166.759 0.865967 165.675 1.9911 165.675 3.36053C165.675 4.71042 166.757 5.82718 168.081 5.82718C169.458 5.82718 170.529 4.71042 170.529 3.36053C170.529 1.9911 169.458 0.865967 168.081 0.865967ZM168.081 5.34418C166.984 5.34418 166.119 4.45775 166.119 3.36193C166.119 2.22423 166.984 1.30988 168.081 1.30988C169.215 1.30988 170.126 2.22283 170.126 3.36193C170.126 4.45775 169.214 5.34418 168.081 5.34418ZM168.743 3.87843C168.588 4.10039 168.4 4.20788 168.169 4.20788C167.67 4.20788 167.392 3.90216 167.392 3.34937C167.392 2.66535 167.871 2.48527 168.119 2.48527C168.439 2.48527 168.626 2.66675 168.728 2.8203L168.764 2.87474L169.121 2.5802L169.092 2.53553C168.846 2.1991 168.513 2.02042 168.122 2.02042C167.529 2.02042 166.93 2.4769 166.93 3.35076C166.93 4.14227 167.423 4.67412 168.153 4.67412C168.661 4.67412 168.933 4.39633 169.112 4.15343L169.144 4.10737L168.778 3.82957L168.743 3.87843Z" fill="#1D1D1B"/>
<path d="M94.9247 1.22192L81.3965 27.3891H84.0027L97.5295 1.22192H94.9247Z" fill="#DC4231"/>
<path d="M21.1953 20.7676C19.902 20.7676 18.722 20.4676 17.6553 19.8676C16.5886 19.2543 15.742 18.4076 15.1153 17.3276C14.502 16.2343 14.1953 15.0076 14.1953 13.6476C14.1953 12.2876 14.502 11.0676 15.1153 9.98764C15.742 8.8943 16.5886 8.04764 17.6553 7.44764C18.722 6.8343 19.902 6.52764 21.1953 6.52764C22.502 6.52764 23.6886 6.8343 24.7553 7.44764C25.822 8.04764 26.662 8.88764 27.2753 9.96764C27.8886 11.0476 28.1953 12.2743 28.1953 13.6476C28.1953 15.021 27.8886 16.2476 27.2753 17.3276C26.662 18.4076 25.822 19.2543 24.7553 19.8676C23.6886 20.4676 22.502 20.7676 21.1953 20.7676ZM21.1953 19.1876C22.1686 19.1876 23.042 18.961 23.8153 18.5076C24.602 18.0543 25.2153 17.4076 25.6553 16.5676C26.1086 15.7276 26.3353 14.7543 26.3353 13.6476C26.3353 12.5276 26.1086 11.5543 25.6553 10.7276C25.2153 9.88764 24.6086 9.24097 23.8353 8.78764C23.062 8.3343 22.182 8.10764 21.1953 8.10764C20.2086 8.10764 19.3286 8.3343 18.5553 8.78764C17.782 9.24097 17.1686 9.88764 16.7153 10.7276C16.2753 11.5543 16.0553 12.5276 16.0553 13.6476C16.0553 14.7543 16.2753 15.7276 16.7153 16.5676C17.1686 17.4076 17.782 18.0543 18.5553 18.5076C19.342 18.961 20.222 19.1876 21.1953 19.1876Z" fill="#1D1D1B"/>
<path d="M39.938 9.46764C41.2713 9.46764 42.3513 9.8743 43.178 10.6876C44.0046 11.4876 44.418 12.6476 44.418 14.1676V20.6276H42.618V14.4276C42.618 13.3343 42.3446 12.501 41.798 11.9276C41.2513 11.341 40.5046 11.0476 39.558 11.0476C38.598 11.0476 37.8313 11.3476 37.258 11.9476C36.698 12.5476 36.418 13.421 36.418 14.5676V20.6276H34.598V9.66764H36.418V11.2276C36.778 10.6676 37.2646 10.2343 37.878 9.92764C38.5046 9.62097 39.1913 9.46764 39.938 9.46764Z" fill="#1D1D1B"/>
<path d="M53.2109 5.82764V20.6276H51.3909V5.82764H53.2109Z" fill="#1D1D1B"/>
<path d="M69.7528 9.66764L63.1528 25.7876H61.2728L63.4328 20.5076L59.0128 9.66764H61.0328L64.4728 18.5476L67.8728 9.66764H69.7528Z" fill="#1D1D1B"/>
<path d="M116.451 20.7676C115.158 20.7676 113.978 20.4676 112.911 19.8676C111.845 19.2543 110.998 18.4076 110.371 17.3276C109.758 16.2343 109.451 15.0076 109.451 13.6476C109.451 12.2876 109.758 11.0676 110.371 9.98764C110.998 8.8943 111.845 8.04764 112.911 7.44764C113.978 6.8343 115.158 6.52764 116.451 6.52764C117.758 6.52764 118.945 6.8343 120.011 7.44764C121.078 8.04764 121.918 8.88764 122.531 9.96764C123.145 11.0476 123.451 12.2743 123.451 13.6476C123.451 15.021 123.145 16.2476 122.531 17.3276C121.918 18.4076 121.078 19.2543 120.011 19.8676C118.945 20.4676 117.758 20.7676 116.451 20.7676ZM116.451 19.1876C117.425 19.1876 118.298 18.961 119.071 18.5076C119.858 18.0543 120.471 17.4076 120.911 16.5676C121.365 15.7276 121.591 14.7543 121.591 13.6476C121.591 12.5276 121.365 11.5543 120.911 10.7276C120.471 9.88764 119.865 9.24097 119.091 8.78764C118.318 8.3343 117.438 8.10764 116.451 8.10764C115.465 8.10764 114.585 8.3343 113.811 8.78764C113.038 9.24097 112.424 9.88764 111.971 10.7276C111.531 11.5543 111.311 12.5276 111.311 13.6476C111.311 14.7543 111.531 15.7276 111.971 16.5676C112.424 17.4076 113.038 18.0543 113.811 18.5076C114.598 18.961 115.478 19.1876 116.451 19.1876Z" fill="#1D1D1B"/>
<path d="M135.194 9.46764C136.527 9.46764 137.607 9.8743 138.434 10.6876C139.26 11.4876 139.674 12.6476 139.674 14.1676V20.6276H137.874V14.4276C137.874 13.3343 137.6 12.501 137.054 11.9276C136.507 11.341 135.76 11.0476 134.814 11.0476C133.854 11.0476 133.087 11.3476 132.514 11.9476C131.954 12.5476 131.674 13.421 131.674 14.5676V20.6276H129.854V9.66764H131.674V11.2276C132.034 10.6676 132.52 10.2343 133.134 9.92764C133.76 9.62097 134.447 9.46764 135.194 9.46764Z" fill="#1D1D1B"/>
<path d="M156.647 14.7276C156.647 15.0743 156.627 15.441 156.587 15.8276H147.827C147.893 16.9076 148.26 17.7543 148.927 18.3676C149.607 18.9676 150.427 19.2676 151.387 19.2676C152.173 19.2676 152.827 19.0876 153.347 18.7276C153.88 18.3543 154.253 17.861 154.467 17.2476H156.427C156.133 18.301 155.547 19.161 154.667 19.8276C153.787 20.481 152.693 20.8076 151.387 20.8076C150.347 20.8076 149.413 20.5743 148.587 20.1076C147.773 19.641 147.133 18.981 146.667 18.1276C146.2 17.261 145.967 16.261 145.967 15.1276C145.967 13.9943 146.193 13.001 146.647 12.1476C147.1 11.2943 147.733 10.641 148.547 10.1876C149.373 9.72097 150.32 9.48764 151.387 9.48764C152.427 9.48764 153.347 9.7143 154.147 10.1676C154.947 10.621 155.56 11.2476 155.987 12.0476C156.427 12.8343 156.647 13.7276 156.647 14.7276ZM154.767 14.3476C154.767 13.6543 154.613 13.061 154.307 12.5676C154 12.061 153.58 11.681 153.047 11.4276C152.527 11.161 151.947 11.0276 151.307 11.0276C150.387 11.0276 149.6 11.321 148.947 11.9076C148.307 12.4943 147.94 13.3076 147.847 14.3476H154.767Z" fill="#1D1D1B"/>
</svg>
