<svg width="40" height="40" viewBox="0 0 40 40" fill="none" xmlns="http://www.w3.org/2000/svg">
<path d="M38.0104 34.9L34.8104 8.10002H28.9104C28.2104 4.00002 24.5104 0.900024 20.0104 0.900024C15.5104 0.900024 11.8104 4.00002 11.1104 8.10002H5.21042L2.01042 34.9C1.81042 36.4 2.41042 37.3 2.91042 37.9C3.41042 38.4 4.31042 39.1 6.01042 39.1H34.0104C35.3104 39.1 36.4104 38.7 37.1104 37.8C37.8104 37.1 38.1104 36 38.0104 34.9ZM20.0104 4.90002C22.2104 4.90002 24.1104 6.30002 24.7104 8.10002H15.2104C15.9104 6.20002 17.8104 4.90002 20.0104 4.90002ZM6.01042 35.1L8.81042 12.1H11.0104V15.1C11.0104 16.2 11.9104 17.1 13.0104 17.1C14.1104 17.1 15.0104 16.2 15.0104 15.1V12.1H25.0104V15.1C25.0104 16.2 25.9104 17.1 27.0104 17.1C28.1104 17.1 29.0104 16.2 29.0104 15.1V12.1H31.2104L34.0104 35.1H6.01042Z" fill="black"/>
</svg>
