<svg width="40" height="40" viewBox="0 0 40 40" fill="none" xmlns="http://www.w3.org/2000/svg">
<path d="M20 16.0565C21.4713 16.0466 22.9067 15.6013 24.1253 14.7767C25.3438 13.9521 26.2909 12.7851 26.8471 11.423C27.4034 10.0608 27.5438 8.56447 27.2507 7.12262C26.9576 5.68077 26.2442 4.35799 25.2003 3.32109C24.1564 2.28418 22.8289 1.57959 21.3851 1.29615C19.9413 1.01272 18.446 1.16315 17.0876 1.72846C15.7292 2.29377 14.5686 3.24866 13.7522 4.4727C12.9357 5.69674 12.5 7.13512 12.5 8.60645C12.5013 9.58865 12.6965 10.5609 13.0745 11.4675C13.4525 12.374 14.0058 13.197 14.7026 13.8892C15.3995 14.5814 16.2261 15.1291 17.1352 15.5011C18.0443 15.873 19.0178 16.0617 20 16.0565ZM20 5.14645C20.6797 5.15631 21.3413 5.36674 21.9019 5.75133C22.4624 6.13592 22.8968 6.67753 23.1506 7.30816C23.4043 7.93879 23.4661 8.63034 23.3282 9.29598C23.1903 9.96162 22.8589 10.5717 22.3754 11.0496C21.892 11.5275 21.2782 11.8519 20.611 11.9822C19.9438 12.1124 19.253 12.0427 18.6253 11.7817C17.9977 11.5207 17.4611 11.0801 17.083 10.5151C16.7048 9.95024 16.502 9.28622 16.5 8.60645C16.5013 8.14953 16.5931 7.6974 16.77 7.27614C16.947 6.85488 17.2056 6.47285 17.531 6.15209C17.8565 5.83134 18.2422 5.57821 18.6659 5.40732C19.0897 5.23643 19.5431 5.15117 20 5.15645V5.14645ZM20 17.6265C18.1362 17.6278 16.2909 17.9965 14.5697 18.7116C12.8485 19.4267 11.2851 20.474 9.96906 21.7938C8.65299 23.1136 7.61002 24.6799 6.8998 26.4031C6.18958 28.1263 5.82604 29.9726 5.82999 31.8365C5.82999 33.2465 6.48999 35.8365 10.94 37.4965C13.8624 38.4526 16.9259 38.9057 20 38.8365C26.54 38.8365 34.17 36.9965 34.17 31.8365C34.1739 29.9726 33.8104 28.1263 33.1002 26.4031C32.39 24.6799 31.347 23.1136 30.0309 21.7938C28.7148 20.474 27.1515 19.4267 25.4303 18.7116C23.7091 17.9965 21.8638 17.6278 20 17.6265ZM20 34.8365C13.7 34.8365 9.82999 33.0665 9.82999 31.8365C9.78727 30.4747 10.0186 29.1183 10.5102 27.8477C11.0018 26.5771 11.7437 25.4183 12.6918 24.4399C13.64 23.4616 14.775 22.6837 16.0296 22.1525C17.2841 21.6213 18.6326 21.3476 19.995 21.3476C21.3574 21.3476 22.7059 21.6213 23.9604 22.1525C25.215 22.6837 26.35 23.4616 27.2981 24.4399C28.2463 25.4183 28.9882 26.5771 29.4798 27.8477C29.9714 29.1183 30.2027 30.4747 30.16 31.8365C30.17 33.0665 26.3 34.8365 20 34.8365Z" fill="black"/>
</svg>
