<svg width="50" height="24" viewBox="0 0 50 24" fill="none" xmlns="http://www.w3.org/2000/svg">
<path d="M12.4678 11.2133V12.0668C12.4678 13.0812 12.341 13.9903 12.0874 14.7944C11.8338 15.5984 11.4689 16.2818 10.9927 16.8447C10.5164 17.4075 9.94434 17.8373 9.27637 18.1342C8.61458 18.4311 7.8724 18.5795 7.0498 18.5795C6.25195 18.5795 5.51904 18.4311 4.85107 18.1342C4.18929 17.8373 3.6141 17.4075 3.12549 16.8447C2.64307 16.2818 2.26888 15.5984 2.00293 14.7944C1.73698 13.9903 1.604 13.0812 1.604 12.0668V11.2133C1.604 10.199 1.73389 9.29291 1.99365 8.49506C2.2596 7.69102 2.63379 7.00759 3.11621 6.44476C3.59863 5.87575 4.17074 5.44281 4.83252 5.14594C5.50049 4.84906 6.2334 4.70062 7.03125 4.70062C7.85384 4.70062 8.59603 4.84906 9.25781 5.14594C9.92578 5.44281 10.4979 5.87575 10.9741 6.44476C11.4565 7.00759 11.8245 7.69102 12.0781 8.49506C12.3379 9.29291 12.4678 10.199 12.4678 11.2133ZM10.6958 12.0668V11.1948C10.6958 10.3907 10.6123 9.67946 10.4453 9.06097C10.2845 8.44248 10.0464 7.92295 9.73096 7.50238C9.41553 7.08181 9.02897 6.76329 8.57129 6.54681C8.11979 6.33034 7.60645 6.22211 7.03125 6.22211C6.47461 6.22211 5.97054 6.33034 5.51904 6.54681C5.07373 6.76329 4.69027 7.08181 4.36865 7.50238C4.05322 7.92295 3.80892 8.44248 3.63574 9.06097C3.46257 9.67946 3.37598 10.3907 3.37598 11.1948V12.0668C3.37598 12.8771 3.46257 13.5945 3.63574 14.2192C3.80892 14.8377 4.05632 15.3603 4.37793 15.787C4.70573 16.2076 5.09229 16.5261 5.5376 16.7426C5.9891 16.9591 6.49316 17.0673 7.0498 17.0673C7.63118 17.0673 8.14762 16.9591 8.59912 16.7426C9.05062 16.5261 9.43099 16.2076 9.74023 15.787C10.0557 15.3603 10.2938 14.8377 10.4546 14.2192C10.6154 13.5945 10.6958 12.8771 10.6958 12.0668ZM16.6055 10.2856V22.2534H14.8799V8.3559H16.457L16.6055 10.2856ZM23.3687 13.2914V13.4863C23.3687 14.2161 23.2821 14.8933 23.1089 15.518C22.9357 16.1365 22.6821 16.6746 22.3481 17.1323C22.0203 17.5899 21.6152 17.9456 21.1328 18.1992C20.6504 18.4527 20.0968 18.5795 19.4722 18.5795C18.8351 18.5795 18.2723 18.4744 17.7837 18.2641C17.2951 18.0538 16.8807 17.7477 16.5405 17.3456C16.2004 16.9436 15.9282 16.4612 15.7241 15.8984C15.5262 15.3356 15.3901 14.7016 15.3159 13.9965V12.9575C15.3901 12.2153 15.5293 11.5504 15.7334 10.9628C15.9375 10.3753 16.2065 9.87429 16.5405 9.4599C16.8807 9.03933 17.292 8.7208 17.7744 8.50433C18.2568 8.28168 18.8135 8.17035 19.4443 8.17035C20.0752 8.17035 20.6349 8.29405 21.1235 8.54144C21.6121 8.78265 22.0234 9.12901 22.3574 9.58051C22.6914 10.032 22.9419 10.5732 23.1089 11.204C23.2821 11.8287 23.3687 12.5245 23.3687 13.2914ZM21.6431 13.4863V13.2914C21.6431 12.7905 21.5905 12.3204 21.4854 11.8813C21.3802 11.436 21.2163 11.0463 20.9937 10.7123C20.7772 10.3722 20.4989 10.1062 20.1587 9.91449C19.8185 9.71657 19.4134 9.61761 18.9434 9.61761C18.5104 9.61761 18.1331 9.69183 17.8115 9.84027C17.4961 9.98871 17.2271 10.1897 17.0044 10.4433C16.7817 10.6907 16.5993 10.9752 16.457 11.2968C16.321 11.6122 16.2189 11.94 16.1509 12.2802V14.683C16.2746 15.116 16.4478 15.5242 16.6704 15.9077C16.8931 16.2849 17.1899 16.5911 17.561 16.8261C17.9321 17.055 18.3991 17.1694 18.9619 17.1694C19.4258 17.1694 19.8247 17.0735 20.1587 16.8818C20.4989 16.6839 20.7772 16.4148 20.9937 16.0746C21.2163 15.7345 21.3802 15.3448 21.4854 14.9057C21.5905 14.4604 21.6431 13.9872 21.6431 13.4863ZM37.9805 10.9443V12.3544H25.5859V10.9443H37.9805ZM46.2466 15.7314C46.2466 15.484 46.1909 15.2551 46.0796 15.0449C45.9744 14.8284 45.7549 14.6336 45.4209 14.4604C45.0931 14.281 44.5983 14.1264 43.9365 13.9965C43.3799 13.879 42.8758 13.7398 42.4243 13.579C41.979 13.4182 41.5986 13.2234 41.2832 12.9946C40.974 12.7657 40.7358 12.4967 40.5688 12.1874C40.4019 11.8782 40.3184 11.5164 40.3184 11.102C40.3184 10.7062 40.4049 10.332 40.5781 9.97943C40.7575 9.62689 41.008 9.31455 41.3296 9.04242C41.6574 8.77028 42.0501 8.55691 42.5078 8.40228C42.9655 8.24766 43.4757 8.17035 44.0386 8.17035C44.8426 8.17035 45.5291 8.3126 46.0981 8.59711C46.6672 8.88161 47.1032 9.26198 47.4062 9.73822C47.7093 10.2083 47.8608 10.7309 47.8608 11.3061H46.1445C46.1445 11.0278 46.061 10.7587 45.894 10.499C45.7332 10.233 45.4951 10.0134 45.1797 9.84027C44.8704 9.66709 44.4901 9.58051 44.0386 9.58051C43.5623 9.58051 43.1758 9.65472 42.8789 9.80316C42.5882 9.94541 42.3748 10.1279 42.2388 10.3505C42.1089 10.5732 42.0439 10.8082 42.0439 11.0556C42.0439 11.2411 42.0749 11.4081 42.1367 11.5566C42.2048 11.6988 42.3223 11.8318 42.4893 11.9555C42.6562 12.073 42.8913 12.1843 43.1943 12.2895C43.4974 12.3946 43.884 12.4998 44.354 12.6049C45.1766 12.7905 45.8538 13.0131 46.3857 13.2729C46.9176 13.5327 47.3135 13.8512 47.5732 14.2285C47.833 14.6057 47.9629 15.0634 47.9629 15.6015C47.9629 16.0406 47.8701 16.4426 47.6846 16.8076C47.5052 17.1725 47.2424 17.4879 46.896 17.7538C46.5558 18.0136 46.1476 18.2177 45.6714 18.3661C45.2013 18.5084 44.6725 18.5795 44.085 18.5795C43.2005 18.5795 42.4521 18.4218 41.8398 18.1064C41.2275 17.791 40.7637 17.3828 40.4482 16.8818C40.1328 16.3808 39.9751 15.852 39.9751 15.2953H41.7007C41.7254 15.7654 41.8615 16.1396 42.1089 16.4179C42.3563 16.69 42.6593 16.8849 43.0181 17.0024C43.3768 17.1137 43.7324 17.1694 44.085 17.1694C44.555 17.1694 44.9478 17.1075 45.2632 16.9838C45.5848 16.8601 45.8291 16.69 45.9961 16.4736C46.1631 16.2571 46.2466 16.0097 46.2466 15.7314Z" fill="black"/>
</svg>
